<svg width="120" height="120" viewBox="0 0 120 120" fill="none" xmlns="http://www.w3.org/2000/svg">
<g clip-path="url(#clip0_10_5017)">
<path fill-rule="evenodd" clip-rule="evenodd" d="M27.4178 0.583008H92.5822C99.6937 0.603515 106.508 3.45067 111.537 8.50247C116.565 13.5543 119.399 20.4001 119.42 27.5444V92.4654C119.397 99.6081 116.562 106.451 111.533 111.501C106.505 116.551 99.692 119.397 92.5822 119.417H27.4178C20.308 119.397 13.4951 116.551 8.46674 111.501C3.43842 106.451 0.603225 99.6081 0.580261 92.4654V27.5444C0.600675 20.4001 3.43475 13.5543 8.46334 8.50247C13.4919 3.45067 20.3063 0.603515 27.4178 0.583008Z" fill="white"/>
<path d="M27.4178 0H92.5822C99.8468 0.023059 106.807 2.93245 111.944 8.09302C117.081 13.2536 119.977 20.2462 120 27.5443V92.4654C119.98 99.7634 117.084 106.756 111.946 111.916C106.809 117.076 99.8467 119.982 92.5822 120H27.4178C20.1533 119.982 13.1913 117.076 8.05363 111.916C2.91595 106.756 0.020427 99.7634 0 92.4654V27.5443C0.0229531 20.2462 2.91898 13.2536 8.05584 8.09302C13.1927 2.93245 20.1532 0.023059 27.4178 0ZM92.5822 1.1659H27.4178C20.4586 1.1813 13.7889 3.96539 8.86804 8.90897C3.94717 13.8526 1.17587 20.5531 1.16054 27.5443V92.4654C1.17842 99.455 3.95085 106.153 8.87145 111.094C13.792 116.036 20.4603 118.819 27.4178 118.834H92.5822C99.5397 118.819 106.208 116.036 111.129 111.094C116.049 106.153 118.822 99.455 118.839 92.4654V27.5443C118.824 20.5531 116.053 13.8526 111.132 8.90897C106.211 3.96539 99.5414 1.1813 92.5822 1.1659Z" fill="#999999"/>
<path fill-rule="evenodd" clip-rule="evenodd" d="M59.9613 12.7373C69.2686 12.7296 78.3691 15.4953 86.1116 20.6844C93.8541 25.8736 99.8906 33.253 103.458 41.8893C107.025 50.5257 107.962 60.0308 106.151 69.2023C104.34 78.3739 99.8618 86.7997 93.2832 93.4141C86.7047 100.028 78.3212 104.534 69.1933 106.361C60.0654 108.188 50.6031 107.254 42.0036 103.678C33.404 100.101 26.0535 94.0431 20.8818 86.2692C15.7101 78.4952 12.9497 69.355 12.9497 60.0047C12.9497 47.4754 17.9015 35.4586 26.7167 26.5954C35.532 17.7321 47.4895 12.7476 59.9613 12.7373Z" fill="#E60123"/>
<path fill-rule="evenodd" clip-rule="evenodd" d="M45.4545 104.931C44.6325 104.668 43.8201 104.377 43.0174 104.066L42.94 103.386C42.5338 99.6745 42.1663 93.981 43.1044 89.9295C43.9555 86.2569 48.588 66.6115 48.588 66.6115C47.6536 64.4105 47.1859 62.038 47.2147 59.6453C47.2147 53.0968 50.9478 48.2389 55.6576 48.2389C59.6712 48.2389 61.5764 51.2314 61.5764 54.8263C61.5764 58.8389 59.0232 64.853 57.7079 70.4396C56.5861 75.1129 60.0193 78.9215 64.6131 78.9215C72.9207 78.9409 79.3037 70.1287 79.3037 57.4301C79.3037 46.1792 71.2766 38.3482 59.8066 38.3482C46.5087 38.3482 38.6847 48.375 38.6847 58.7223C38.7031 62.5646 39.9245 66.3037 42.176 69.4097C42.3424 69.589 42.4593 69.8087 42.5153 70.0472C42.5713 70.2858 42.5643 70.5349 42.4951 70.7699C42.1276 72.2661 41.3249 75.4238 41.1895 76.0942C40.9864 76.9686 40.5029 77.1726 39.6325 76.7354C33.8298 74.015 30.1547 65.4456 30.1547 58.5766C30.1547 43.7794 40.8414 30.1772 61.0155 30.1772C77.234 30.187 89.8259 41.7779 89.8259 57.3232C89.8259 73.5001 79.6905 86.4707 65.5996 86.4707C60.8994 86.4707 56.4216 84.0028 54.9033 81.0784L51.9922 92.3002C50.8147 96.9616 48.5768 101.285 45.4545 104.931Z" fill="white"/>
</g>
<defs>
<clipPath id="clip0_10_5017">
<rect width="120" height="120" fill="white"/>
</clipPath>
</defs>
</svg>
